<svg width="51" height="70" viewBox="0 0 51 70" fill="none" xmlns="http://www.w3.org/2000/svg">
<path d="M4.77148 0H7.94127V3.11719H10.863V0H14.0328V9.43359H10.863V6.28906H7.96884V9.43359H4.77148V0ZM18.2224 3.14453H15.4247V0H24.2037V3.14453H21.3922V9.43359H18.2224V3.14453ZM25.5956 0H28.917L30.9567 3.32227L32.9964 0H36.3178V9.43359H33.148V4.75781L30.9292 8.14844L28.7103 4.75781V9.43359H25.5956V0ZM37.8889 0H41.0587V6.31641H45.5515V9.43359H37.8889V0Z" fill="black"/>
<path d="M4.66124 64.3945L0.113281 13.7539H50.1133L45.5653 64.3672L25.0719 70" fill="#DA5AA0"/>
<path d="M25.1133 65.6934V17.9102H45.5515L41.6513 61.1133L25.1133 65.6934Z" fill="#E798DA"/>
<path d="M9.4021 24.1035H25.1132L27.4494 27.207L25.1132 30.3105H16.2654L16.8442 36.668H25.1132L27.4494 39.8876L25.1132 42.8613H11.111L9.4021 24.1035ZM11.3867 45.9785H17.6711L18.1121 50.9414L25.1132 52.8008L27.7493 55.8988L25.1132 59.2812L12.2687 55.7266L11.3867 45.9785Z" fill="#EBEBEB"/>
<path d="M40.7693 24.1035H25.0857V30.3105H40.1904L40.7693 24.1035ZM39.6254 36.668H25.0857V42.875H32.8034L32.073 50.9414L25.0857 52.8008V59.2539L37.9027 55.7266L39.6254 36.668Z" fill="white"/>
</svg>
