<?xml version="1.0" encoding="UTF-8"?>
<svg id="Capa_2" data-name="Capa 2" xmlns="http://www.w3.org/2000/svg" viewBox="0 0 568.84 470.49">
  <defs>
    <style>
      .cls-1 {
        fill: #fffffff;
      }

      .cls-1, .cls-2 {
        stroke-width: 0px;
      }

      .cls-2 {
        fill: #fffffff;
      }
    </style>
  </defs>
  <g id="Capa_1-2" data-name="Capa 1">
    <g>
      <path class="cls-1" d="M141.88,178.49c19.77-21.92,44.36-35.91,61.5-43.79,25.43-11.69,55.44-18.15,94.45-20.36,28.55-1.61,57.58,1.24,88.75,8.74,23.39,5.64,45.73,14.71,64.61,26.28,11.87,7.27,22.19,15.35,30.88,24.19V40.49H88.7v237.18h22.76c-.97-6.89-1.43-13.86-1.35-20.81.32-29.01,11-55.37,31.76-78.37ZM159.15,70.51h0c1.46,0,2.91.55,4.02,1.66,2.21,2.22,2.21,5.81,0,8.02l-37.91,37.9c-1.1,1.11-2.55,1.66-4.01,1.66s-2.9-.55-4.01-1.66c-2.21-2.22-2.21-5.81,0-8.02l37.9-37.9c1.11-1.11,2.57-1.66,4.01-1.66ZM111.76,88.47h0s21.78-21.78,21.78-21.78c1.11-1.11,2.57-1.66,4.01-1.66s2.91.55,4.01,1.66c2.22,2.22,2.22,5.81,0,8.02l-21.78,21.78c-1.1,1.11-2.55,1.65-4.01,1.65s-2.9-.54-4.01-1.65c-2.21-2.22-2.21-5.81,0-8.02Z"/>
      <path class="cls-1" d="M493.11,201.85c-3.12-5.3-6.81-10.44-11.04-15.39-21.45-25.12-56.52-45.11-97.51-54.97-30.33-7.3-58.54-10.11-86.24-8.52-37.9,2.14-66.92,8.36-91.33,19.59-26.28,12.07-87.48,47.38-88.23,114.41-.08,6.91.43,13.85,1.46,20.7,2.15,14.16,6.58,27.96,12.88,40.49,2.01,3.99,4.21,7.86,6.59,11.57,6.41,10,14.11,18.83,22.84,25.91l.3.28c31.88,32.23,94.5,44.89,167.55,33.91,2.31-.33,5-.46,7.63-.55.84-.03,1.69-.07,2.52-.13.89-6.91,3.32-12.32,7.23-16.06,3.94-3.75,9.21-5.79,16.1-6.21,5.99-.38,12.28.49,19.24,1.63,1.71-4.77,1.24-9.12-1.32-12.04-3.14-3.55-9.01-4.47-16.13-2.5-5.44,1.51-33.3,9.06-46.97,9.33-16.63.36-37.82-1.12-55.29-3.82-19.55-3.03-54.63-14.06-69.67-26.91-1.1-.94-2.19-1.89-3.22-2.84-4.27-3.85-8.01-7.71-11.28-11.57-11.03-12.99-17.01-26.16-20.85-40.49-1.08-4.03-2-8.14-2.81-12.38-.45-2.35,1.09-4.61,3.43-5.06,2.33-.45,4.61,1.09,5.06,3.44.92,4.81,1.99,9.47,3.31,14,4.16,14.34,10.86,27.46,23.58,40.49,2.54,2.61,5.34,5.22,8.4,7.84,1.47,1.27,3.19,2.51,5.08,3.73,15.65,10.11,44.18,18.73,60.28,21.21,16.74,2.6,37.85,4.06,53.8,3.74,3.58-.06,8.72-.74,15.34-2-.05-7.36-2.27-11.81-7.11-14.34-5.6-2.93-14.89-3.58-29.27-2.05-7.01.76-19.79-.24-33.36-2.6-3.96-.68-11.2-2.05-17.92-3.96-4.87-1.37-9.45-3.04-12.33-4.93-1.62-1.07-2.33-3.11-1.73-4.95.2-.6.41-1.16.66-1.69.71-1.54,1.6-2.84,2.45-4.11,1.59-2.29,2.93-4.28,2.89-7.37-.13-7.57-1.28-10.47-2.73-14.16-.51-1.29-1.04-2.62-1.58-4.27l-.3-1c-1.08-.81-1.86-2.02-2.2-3.44-.15-.63-.22-1.3-.22-2.07,0-1.15.46-2.24,1.28-3.05.47-.47,1.03-.82,1.66-1.02.44-.15.91-.23,1.38-.23h.01c.47,0,.93.08,1.37.23,1.16.39,2.13,1.25,2.6,2.43l.09.26c.84.58,1.45,1.45,1.73,2.44.71,2.73,1.52,4.74,2.28,6.69,1.6,4.12,3.12,8.02,3.27,17.03.08,5.18-1.99,8.86-3.81,11.63-.24.36-.47.7-.69,1.04-.02.03-.06.07-.08.1l.45.2c5.16,1.99,13.55,4.07,22.93,5.69,6.55,1.14,13.08,1.97,18.76,2.39-2.12-2.97-4-6.13-5.65-9.42-3.43-6.83-5.77-14.23-6.83-21.66-.93-6.49-.85-12.81.2-18.83,1.1-6.46,3.34-12.56,6.65-18.12,7.63-12.76,19.45-25.39,27.71-33.78l3.57-3.6,1.75-2.17c2.06-2.71,4.52-6.43,7.37-10.72,3.16-4.77,6.76-10.2,10.67-15.52,7.74-10.56,17.9-22.5,27.8-21.06l.13.02.56.15c9.93,3.15,11.79,15,13.58,26.45.62,4.01,1.27,8.15,2.25,11.88l1.05,3.04,4.27-.02h.05c10.02.69,20.76,3.83,31.15,6.88,5.95,1.73,11.55,3.38,16.76,4.49l5,.83c1.74-1.62,4.21-4.3,7.05-7.42,2.08-2.27,4.43-4.83,6.88-7.4,6.61-6.89,14.14-14.24,20.4-14.09,7.15.16,12.03,5.46,14.52,15.73.33,1.38.61,2.84.86,4.34.62,3.61,1.01,7.37,1.36,10.57.24,2.24.44,4.18.67,5.72,1.19,8.45,1.4,17,1.61,25.26.08,3.31.17,6.73.32,10.02.05,1.15-.35,2.25-1.13,3.11-.75.82-1.75,1.31-2.83,1.39-.06.01-.1.01-.16.01-1.16.05-2.27-.36-3.12-1.14-.84-.77-1.35-1.83-1.4-2.99-.15-3.59-.25-7.18-.33-10.63-.22-8.18-.41-15.91-1.51-23.79-.31-2.05-.54-4.28-.78-6.65-.46-4.39-.93-8.93-1.97-13.18-2.17-9.04-5.28-9.12-6.3-9.14h-.03c-1.04,0-5.26,2.38-13.93,11.43-2.01,2.1-4.07,4.36-6.07,6.54-4.22,4.59-7.88,8.57-10.24,10.33-.87.67-1.96.97-3.04.85-8.32-.89-17.39-3.58-26.19-6.17-11.9-3.52-24.21-7.17-34.55-6.26-1.83.15-3.57-.86-4.31-2.54-2.78-6.17-3.97-13.71-5-20.34-1.27-8.09-2.47-15.72-6.14-18.23l-.95-.47-1.24.08c-4.11,1-10.51,7.21-18.06,17.49-3.37,4.59-6.72,9.6-9.95,14.46-4.15,6.21-7.73,11.58-10.44,14.68l-.07.08c-10.06,10.06-22.6,23.25-30.15,35.91-2.59,4.35-4.31,8.95-5.27,13.68-2.86,13.89.77,28.74,7.68,40.49,1.87,3.21,4,6.18,6.31,8.83.22.24.4.53.55.81.39-.02.78-.07,1.13-.1,14.94-1.61,25.03-.98,32.24,2.04.68.29,1.35.6,1.98.93,7.26,3.82,11.19,10.62,11.69,20.23,9.32-2.08,17.64-4.34,20.92-5.24,10.21-2.83,19.2-1.08,24.65,4.82,4.53,4.9,5.89,12.05,3.74,19.43,1.69.23,3.09.37,4.35.45,5.2.32,12.58-1.91,14.88-4.5.77-.86,1.83-1.37,2.98-1.44,1.15-.06,2.25.32,3.13,1.09.85.76,1.36,1.83,1.44,2.97.06,1.16-.33,2.27-1.1,3.13-4.6,5.18-14.72,7.8-21.84,7.36-2.98-.16-6.18-.63-9.2-1.14-.98.2-1.98.03-2.84-.44l-.07-.03h-.05c-6.46-1.08-13.17-2.21-19.01-1.84-4.77.29-8.27,1.55-10.67,3.84-2.83,2.69-4.47,7.19-4.88,13.38,1.55,4.87,2.93,8.5,6.22,10.78,4.26,2.94,13.46,3.44,26.6,1.45,24.58-3.74,50.64-15.49,69.71-31.46,13.6-11.36,25.49-26.02,35.55-43.77,2.12-3.72,4.15-7.58,6.08-11.57,2.4-4.91,4.68-10.02,6.82-15.33,10.11-25.07,9.83-72.7-6.74-100.98ZM333.34,298.23c-4.05,2.55-8.99,3.85-14.07,3.85-3.47,0-6.99-.6-10.34-1.85-9.05-3.37-14.52-10.44-14.63-18.93-.02-1.16.41-2.24,1.22-3.08.21-.21.44-.4.68-.55.09-.06.17-.11.26-.17.32-.2.68-.33,1.05-.44.01,0,.03-.01.05-.01.01,0,.03-.01.05-.01.16-.03.31-.07.47-.08.16-.02.32-.03.48-.03h.06c.15,0,.3.01.44.02.1.01.21.02.3.05.08.01.16.02.24.05.1.02.2.05.29.08.12.02.22.07.32.1.3.13.57.28.84.45.01.01.03.02.05.03.13.08.24.18.36.28.13.1.24.22.34.33h.01s.02.03.02.05c.09.09.16.18.23.28.26.33.47.7.61,1.1.05.1.08.22.1.32.02.05.03.09.03.14.02.08.05.15.06.23,0,.02.01.05.01.07.05.22.07.45.07.68.07,4.87,3.35,8.86,9.01,10.96,5.68,2.12,12.26,1.64,16.77-1.22,2-1.27,4.68-.66,5.96,1.36,1.27,2.01.67,4.68-1.33,5.96ZM366.95,322.15c-2.27,2.67-5.79,4.05-10.01,4.05-1.58,0-3.27-.2-5.02-.59-3.26-.74-6.21-2.07-8.49-3.73-.29-.21-.56-.43-.82-.64-.55-.45-1.05-.91-1.48-1.39-.17-.2-.34-.39-.49-.59-.29-.37-.55-.74-.77-1.1-.21-.33-.38-.67-.52-1.01-.05-.12-.09-.23-.13-.33-.07-.2-.14-.38-.18-.58-.44-1.63-.54-4.81,3.58-7.6,6.1-4.14,19.08-.58,23.98,5.01.29.32.54.66.76.99.06.09.13.18.18.28.01.01.01.02.02.03.18.3.33.61.47.92.05.1.09.21.13.31.03.07.06.14.08.2t.01.02c.02.09.06.2.08.29.06.17.09.35.13.52.03.15.06.3.07.45.02.17.03.33.03.51.02,1.4-.52,2.76-1.62,3.99ZM435.18,316.52c-.02.17-.07.33-.13.51-.07.23-.16.45-.28.66-.08.16-.18.32-.29.47-.18.28-.4.52-.66.75-5.15,4.66-13.04,7.28-21.22,7.28-2.1,0-4.21-.18-6.31-.53-5.13-.87-9.58-2.8-12.86-5.58-.72-.61-1.38-1.24-1.98-1.92-.16-.18-.32-.36-.46-.54-.15-.17-.29-.36-.43-.54-.22-.29-.44-.59-.63-.9-.03-.03-.05-.07-.07-.09-.2-.31-.39-.63-.58-.95-.37-.66-.69-1.33-.95-2.04-.08-.2-.15-.39-.22-.6-.17-.48-.31-.97-.44-1.46-.02-.09-.03-.17-.06-.25-.11-.48-.2-.97-.26-1.46-.02-.14-.03-.29-.05-.43-.07-.52-.1-1.05-.11-1.59-.03-1.15.39-2.25,1.18-3.08.81-.83,1.87-1.31,3.02-1.35,1.17-.02,2.25.39,3.08,1.18.83.81,1.31,1.89,1.33,3.03.08,2.56,1.1,4.65,3.16,6.38,2.12,1.77,5.14,3.04,8.76,3.67,7.61,1.29,15.77-.59,20.29-4.66.85-.77,1.96-1.17,3.11-1.1,1.16.06,2.22.56,2.99,1.41.78.86,1.17,1.96,1.12,3.12-.01.21-.03.41-.08.61Z"/>
      <path class="cls-2" d="M514.7,329.73h-17.9c2.01-3.74,3.95-7.59,5.8-11.57h19.96V30.85c0-17.36-13.49-30.85-32.78-30.85H79.06c-17.36,0-32.78,13.49-32.78,30.85v287.31h77.12c1.85,3.97,3.86,7.83,6.06,11.57H44.35L3.86,418.43h561.12c-8.88-19.45-17.76-38.89-26.64-58.34-2.49-5.46-4.98-10.92-7.48-16.37l-6.39-13.99h-9.79ZM88.7,277.67V40.49h393.37v133.07c-8.7-8.83-19.01-16.92-30.88-24.19-18.88-11.57-41.21-20.65-64.61-26.28-31.17-7.5-60.2-10.35-88.75-8.74-39.01,2.21-69.02,8.67-94.45,20.36-17.14,7.88-41.73,21.87-61.5,43.79-20.76,23-31.44,49.37-31.76,78.37-.08,6.95.38,13.92,1.35,20.81h-22.76ZM486.95,329.73c-10.06,17.75-21.96,32.4-35.55,43.77-19.07,15.96-45.13,27.72-69.71,31.46-13.15,1.99-22.35,1.5-26.6-1.45-3.29-2.28-4.67-5.91-6.22-10.78.4-6.19,2.05-10.69,4.88-13.38,2.4-2.29,5.9-3.55,10.67-3.84,5.84-.37,12.55.76,19.01,1.83h.05s.07.05.07.05c.86.47,1.86.63,2.84.44,3.02.51,6.22.98,9.2,1.14,7.12.44,17.24-2.19,21.84-7.36.77-.86,1.16-1.97,1.1-3.13-.08-1.14-.59-2.21-1.44-2.97-.87-.77-1.98-1.15-3.13-1.09-1.15.07-2.21.58-2.98,1.44-2.3,2.59-9.69,4.82-14.88,4.5-1.25-.08-2.66-.22-4.35-.45,2.15-7.37.79-14.53-3.74-19.43-5.45-5.9-14.43-7.65-24.65-4.82-3.28.91-11.61,3.16-20.92,5.24-.49-9.62-4.43-16.41-11.69-20.23-.63-.33-1.3-.64-1.98-.93-7.21-3.01-17.3-3.65-32.24-2.04-.35.03-.74.08-1.13.1-.15-.28-.33-.56-.55-.81-2.31-2.66-4.44-5.62-6.31-8.83-6.91-11.74-10.55-26.59-7.68-40.49.95-4.73,2.68-9.33,5.27-13.68,7.55-12.66,20.08-25.84,30.15-35.91l.07-.08c2.71-3.09,6.29-8.47,10.44-14.68,3.23-4.85,6.58-9.87,9.95-14.46,7.55-10.28,13.95-16.49,18.06-17.49l1.24-.08.95.47c3.67,2.51,4.88,10.14,6.14,18.23,1.03,6.63,2.22,14.17,5,20.34.75,1.68,2.48,2.69,4.31,2.54,10.34-.91,22.65,2.74,34.55,6.26,8.8,2.59,17.87,5.28,26.19,6.17,1.08.12,2.16-.18,3.04-.85,2.36-1.76,6.02-5.74,10.24-10.33,2-2.19,4.06-4.44,6.07-6.54,8.67-9.05,12.89-11.43,13.93-11.43h.03c1.02.02,4.13.1,6.3,9.14,1.04,4.26,1.51,8.79,1.97,13.18.24,2.37.47,4.6.78,6.65,1.09,7.88,1.29,15.61,1.51,23.79.08,3.45.18,7.04.33,10.63.06,1.16.56,2.22,1.4,2.99.85.78,1.96,1.18,3.12,1.14.06,0,.1,0,.16-.01,1.08-.08,2.08-.58,2.83-1.39.78-.85,1.17-1.96,1.13-3.11-.15-3.29-.24-6.71-.32-10.02-.21-8.26-.43-16.8-1.61-25.26-.23-1.54-.43-3.47-.67-5.72-.34-3.2-.74-6.96-1.36-10.57-.25-1.5-.53-2.96-.86-4.34-2.48-10.27-7.36-15.57-14.52-15.73-6.27-.15-13.79,7.2-20.4,14.09-2.45,2.56-4.8,5.13-6.88,7.4-2.84,3.12-5.31,5.8-7.05,7.42l-5-.83c-5.21-1.1-10.81-2.76-16.76-4.49-10.39-3.05-21.13-6.19-31.15-6.88h-.05l-4.27.02-1.05-3.04c-.99-3.73-1.63-7.87-2.25-11.88-1.79-11.46-3.66-23.3-13.58-26.45l-.56-.15-.13-.02c-9.9-1.44-20.06,10.5-27.8,21.06-3.91,5.31-7.51,10.74-10.67,15.52-2.85,4.29-5.31,8.01-7.37,10.72l-1.75,2.17-3.57,3.6c-8.26,8.4-20.08,21.03-27.71,33.78-3.31,5.56-5.54,11.65-6.65,18.12-1.05,6.02-1.13,12.34-.2,18.83,1.06,7.43,3.4,14.83,6.83,21.66,1.64,3.29,3.53,6.45,5.65,9.42-5.68-.43-12.22-1.25-18.76-2.39-9.39-1.62-17.77-3.7-22.93-5.69l-.45-.2s.06-.07.08-.1c.22-.33.45-.68.69-1.04,1.82-2.77,3.89-6.45,3.81-11.63-.15-9.02-1.67-12.92-3.27-17.03-.76-1.96-1.56-3.97-2.28-6.69-.28-.99-.89-1.86-1.73-2.44l-.09-.26c-.47-1.17-1.44-2.04-2.6-2.43-.44-.15-.9-.23-1.37-.23h-.01c-.47,0-.94.08-1.38.23-.62.21-1.18.55-1.66,1.02-.82.81-1.28,1.9-1.28,3.05,0,.77.07,1.44.22,2.07.33,1.41,1.12,2.63,2.2,3.44l.3,1c.54,1.64,1.07,2.98,1.58,4.27,1.45,3.69,2.6,6.59,2.73,14.16.05,3.09-1.3,5.08-2.89,7.37-.85,1.27-1.74,2.56-2.45,4.11-.24.53-.46,1.09-.66,1.69-.61,1.84.1,3.88,1.73,4.95,2.88,1.9,7.46,3.57,12.33,4.93,6.72,1.91,13.96,3.28,17.92,3.96,13.56,2.36,26.35,3.36,33.36,2.6,14.38-1.53,23.67-.89,29.27,2.05,4.84,2.53,7.06,6.98,7.11,14.34-6.63,1.27-11.77,1.94-15.34,2-15.94.32-37.06-1.14-53.8-3.74-16.1-2.48-44.63-11.1-60.28-21.21-1.9-1.22-3.61-2.46-5.08-3.73-3.06-2.62-5.85-5.23-8.4-7.84-12.72-13.03-19.42-26.14-23.58-40.49-1.32-4.53-2.39-9.19-3.31-14-.45-2.35-2.73-3.89-5.06-3.44-2.33.45-3.88,2.71-3.43,5.06.81,4.23,1.73,8.35,2.81,12.38,3.84,14.33,9.82,27.5,20.85,40.49,3.28,3.86,7.02,7.72,11.28,11.57,1.04.95,2.12,1.9,3.22,2.84,15.03,12.86,50.11,23.89,69.67,26.91,17.47,2.7,38.66,4.18,55.29,3.82,13.68-.26,41.53-7.82,46.97-9.33,7.12-1.98,12.99-1.06,16.13,2.5,2.57,2.92,3.04,7.27,1.32,12.04-6.96-1.14-13.25-2.01-19.24-1.63-6.89.43-12.16,2.46-16.1,6.21-3.91,3.74-6.35,9.14-7.23,16.06-.83.06-1.68.09-2.52.13-2.62.09-5.31.22-7.63.55-73.05,10.98-135.67-1.68-167.55-33.91l-.3-.28c-8.73-7.09-16.44-15.92-22.84-25.91-2.38-3.72-4.58-7.58-6.59-11.57-6.3-12.53-10.73-26.33-12.88-40.49-1.04-6.86-1.54-13.79-1.46-20.7.75-67.03,61.95-102.34,88.23-114.41,24.41-11.23,53.43-17.45,91.33-19.59,27.7-1.59,55.91,1.22,86.24,8.52,40.99,9.86,76.06,29.85,97.51,54.97,4.23,4.95,7.92,10.09,11.04,15.39,16.57,28.27,16.85,75.9,6.74,100.98-2.14,5.31-4.42,10.42-6.82,15.33-1.93,3.99-3.97,7.86-6.08,11.57Z"/>
      <path class="cls-2" d="M44.35,470.49h480.14c23.14,0,40.5-17.34,44.35-38.55H0c3.86,21.21,23.14,38.55,44.35,38.55Z"/>
      <path class="cls-2" d="M328.71,290.92c-4.51,2.86-11.09,3.34-16.77,1.22-5.66-2.1-8.94-6.1-9.01-10.96,0-.23-.02-.46-.07-.68,0-.02-.01-.05-.01-.07-.01-.08-.03-.15-.06-.23,0-.05-.01-.09-.03-.14-.02-.1-.06-.22-.1-.32-.14-.4-.34-.77-.61-1.1-.07-.09-.14-.18-.23-.28,0-.01-.01-.02-.02-.03h-.01c-.1-.13-.22-.24-.34-.35-.12-.09-.23-.2-.36-.28-.01-.01-.03-.02-.05-.03-.26-.17-.54-.32-.84-.45-.1-.03-.21-.08-.32-.1-.09-.03-.18-.06-.29-.08-.08-.02-.16-.03-.24-.05-.09-.02-.2-.03-.3-.05-.14-.01-.29-.02-.44-.02h-.06c-.16,0-.32.01-.48.03-.16.01-.31.05-.47.08-.01,0-.03.01-.05.01-.01,0-.03.01-.05.01-.37.1-.73.24-1.05.44-.09.06-.17.12-.26.17-.24.15-.47.35-.68.55-.8.84-1.24,1.92-1.22,3.08.11,8.49,5.58,15.56,14.63,18.93,3.35,1.25,6.87,1.85,10.34,1.85,5.07,0,10.02-1.3,14.07-3.85,2-1.28,2.6-3.95,1.33-5.96-1.28-2.01-3.96-2.62-5.96-1.36Z"/>
      <path class="cls-2" d="M368.47,317.2c-.03-.17-.07-.35-.13-.52-.02-.09-.06-.2-.08-.29t-.01-.02c-.02-.06-.05-.13-.08-.2-.03-.1-.08-.21-.13-.31-.14-.31-.29-.62-.47-.92-.01-.01-.01-.02-.02-.03-.06-.09-.13-.18-.18-.28-.22-.33-.47-.67-.76-.99-4.9-5.59-17.89-9.16-23.98-5.01-4.12,2.79-4.01,5.97-3.58,7.6.05.2.12.38.18.58.03.1.08.22.13.33.14.34.31.68.52,1.01.22.37.48.74.77,1.1.15.2.32.39.49.59.44.48.93.94,1.48,1.39.25.22.53.44.82.64,2.28,1.66,5.23,2.99,8.49,3.73,1.75.39,3.44.59,5.02.59,4.22,0,7.74-1.38,10.01-4.05,1.1-1.23,1.65-2.59,1.62-3.99,0-.17-.01-.33-.03-.51-.01-.15-.03-.3-.07-.45Z"/>
      <path class="cls-2" d="M431.15,311.38c-1.15-.07-2.25.33-3.11,1.1-4.52,4.07-12.68,5.95-20.29,4.66-3.62-.63-6.65-1.9-8.76-3.67-2.06-1.74-3.08-3.82-3.16-6.38-.02-1.14-.51-2.22-1.33-3.03-.83-.79-1.91-1.21-3.08-1.18-1.15.03-2.22.52-3.02,1.35-.79.83-1.22,1.93-1.18,3.08.01.54.05,1.07.11,1.59.01.14.02.29.05.43.07.49.15.98.26,1.46.02.08.03.16.06.25.13.49.26.98.44,1.46.07.21.14.4.22.6.26.7.59,1.38.95,2.04.18.32.38.64.58.95.02.02.03.06.07.09.2.31.41.61.63.9.14.18.28.37.43.54.14.18.3.36.46.54.6.68,1.25,1.31,1.98,1.92,3.28,2.78,7.73,4.7,12.86,5.58,2.1.34,4.21.53,6.31.53,8.18,0,16.07-2.62,21.22-7.28.25-.23.47-.47.66-.75.1-.15.21-.31.29-.47.12-.21.21-.43.28-.66.06-.17.1-.33.13-.51.05-.2.07-.4.08-.61.06-1.16-.33-2.25-1.12-3.12-.77-.85-1.83-1.36-2.99-1.41Z"/>
      <path class="cls-2" d="M115.77,98.14c1.46,0,2.91-.54,4.01-1.65l21.78-21.78c2.22-2.21,2.22-5.8,0-8.02-1.1-1.11-2.55-1.66-4.01-1.66s-2.9.55-4.01,1.66l-21.78,21.77h0c-2.21,2.22-2.21,5.81,0,8.03,1.11,1.11,2.57,1.65,4.01,1.65Z"/>
      <path class="cls-2" d="M117.24,118.09c1.11,1.11,2.57,1.66,4.01,1.66s2.91-.55,4.01-1.66l37.91-37.9c2.21-2.21,2.21-5.8,0-8.02-1.11-1.11-2.57-1.66-4.02-1.66h0c-1.44,0-2.9.55-4.01,1.66l-37.9,37.9c-2.21,2.21-2.21,5.8,0,8.02Z"/>
    </g>
  </g>
</svg>