<svg width="159" height="84" viewBox="0 0 159 84" fill="none" xmlns="http://www.w3.org/2000/svg">
<g clip-path="url(#clip0_380_227)">
<path d="M57.1449 38.248C57.1449 37.2443 55.5367 36.4121 53.5574 36.4121C51.6934 36.4121 49.5116 37.1291 47.9344 39.1393C45.6683 42.038 43.315 45.7689 41.1614 48.8672C37.3461 41.8665 37.2309 38.1946 34.4756 36.9885C33.5562 36.5864 32.6397 36.4149 31.7484 36.4149C29.0212 36.4149 26.727 37.9078 26.727 38.681L26.7551 38.7963C27.5592 40.978 27.8741 45.856 27.8741 51.0208C27.8741 57.1893 27.4158 63.788 26.7551 66.6585C26.6989 66.8891 26.668 67.1168 26.668 67.3192C26.668 69.0399 28.3886 69.844 30.1121 69.844C31.8356 69.844 33.5843 69.0118 33.5843 67.4064C33.5843 67.1758 33.5562 66.9172 33.4691 66.6613C33.2104 65.7729 32.3782 64.7101 32.0633 62.0982L32.2067 47.751C36.0219 54.9232 37.6301 62.2135 38.8925 62.2135C38.9796 62.2135 39.064 62.1854 39.1511 62.1263C39.7247 61.6962 41.7631 55.9297 47.1865 47.5205V62.0982C46.7844 65.2837 45.6373 66.3436 45.6373 67.3192C45.6373 69.0118 48.5079 69.8721 51.3476 69.8721C54.1872 69.8721 57.114 69.0118 57.114 67.2911C57.114 67.0915 57.0859 66.8891 56.9987 66.6585C55.9669 63.8189 55.2471 57.3046 55.2471 51.1361C55.2471 45.9151 55.7645 40.9499 56.9987 38.7991C57.114 38.6276 57.1421 38.4252 57.1421 38.2537L57.1449 38.248Z" fill="white"/>
<path d="M79.9851 58.1621C79.9851 55.5811 80.5587 53.0254 81.5624 49.6403C81.6495 49.3536 81.7058 49.0668 81.7058 48.78C81.7058 46.6292 78.9505 45.5383 76.1671 45.5383C73.3836 45.5383 70.5131 46.6573 70.5131 48.8081C70.5131 49.8119 71.3172 50.7593 71.7192 53.9448V53.6861C71.8064 55.0638 71.8064 55.8679 71.8064 56.6411C71.8064 57.5885 71.7783 58.4489 71.7192 60.2567C71.663 62.4384 71.3453 64.0157 70.1419 64.0157C68.0755 64.0157 67.0718 60.1695 67.0718 56.3262V53.9448C67.3867 51.4763 67.5582 50.4444 67.8168 49.6403C67.9321 49.3255 67.9883 49.0078 67.9883 48.721C67.9883 46.6264 65.4917 45.6227 62.9388 45.6227C60.3859 45.6227 57.6025 46.7135 57.6025 48.8363C57.6025 49.0668 57.6307 49.3536 57.7178 49.6403C57.9484 50.4444 58.8087 51.4763 59.1236 53.9448L59.1517 57.9344C59.1517 64.19 62.3653 69.8721 66.6416 69.8721C68.2189 69.8721 69.9704 69.068 71.7192 67.2602C71.7192 68.7812 74.7613 69.8721 77.4857 69.8721C79.7236 69.8721 81.762 69.127 81.762 67.2911C81.762 66.9762 81.7058 66.6304 81.5624 66.2593C80.4715 63.0457 79.9851 60.6081 79.9851 58.1677V58.1621Z" fill="white"/>
<path d="M95.5951 67.3445C95.5951 66.4251 94.4198 65.3371 94.0459 62.4384V51.1332C94.4198 49.6994 95.4517 49.3845 96.5988 49.3845C98.6062 49.3845 98.7215 51.3638 98.7805 54.8641V62.4384C98.4066 65.4214 97.2033 66.4842 97.2033 67.4317C97.2033 69.068 99.8433 69.8692 102.511 69.8692C105.18 69.8692 108.078 69.0089 108.078 67.3726C108.078 66.4251 106.931 65.3652 106.557 62.4384V56.0984C106.386 50.8465 103.085 45.6817 96.6016 45.5692C95.9409 45.5692 95.3111 45.5973 94.7066 45.6564C94.6504 44.737 93.8182 44.3378 92.6401 44.3378C89.5418 44.3378 84.0312 47.034 84.0312 49.3873C84.0312 49.7303 84.1465 50.0761 84.4052 50.391C85.2655 51.4537 85.5523 53.8351 85.5523 56.5032C85.5523 60.549 84.8635 65.1965 84.2337 66.7456C84.1465 66.9762 84.1184 67.1758 84.1184 67.3782C84.1184 69.0427 86.9299 69.8468 89.8005 69.8468C92.6711 69.8468 95.5979 69.0145 95.5979 67.3501L95.5951 67.3445Z" fill="white"/>
<path d="M93.7275 43.0108H93.8709C98.777 42.8393 97.7733 38.4758 99.4377 37.6464C99.6682 37.846 99.7526 38.3352 99.7807 38.9369C99.896 41.6922 99.896 42.8112 101.158 42.8674C102.019 42.8674 102.767 41.4335 102.879 39.0212C102.879 37.1853 101.96 35.3775 100.008 34.8039C99.4911 34.6605 99.0047 34.6043 98.5436 34.6043C96.0189 34.6043 94.7284 36.4684 93.5503 38.4786C93.4941 38.5348 93.407 38.6782 93.2917 38.7654C93.1764 38.6782 93.0611 38.4786 93.033 38.3914L92.8615 37.8741C92.2289 35.4646 91.7706 34.6043 91.1971 34.5172C90.452 34.5172 89.2459 36.1535 89.2178 38.4477C89.2178 40.7419 90.9103 43.0108 93.7218 43.0108H93.7275Z" fill="white"/>
<path d="M120.786 45.5636C112.866 45.5636 108.907 51.6168 108.907 57.701C108.907 63.7851 112.897 69.8664 120.786 69.8664H121.016C127.989 69.8664 131.489 63.8976 131.489 57.8725C131.489 51.8474 127.93 45.707 120.786 45.5636ZM120.786 65.8235C118.95 65.8235 118.031 61.7214 118.031 57.6166C118.031 53.5118 118.95 49.4379 120.786 49.4379C122.363 49.4379 123.167 53.5118 123.167 57.6166C123.167 61.7214 122.363 65.8235 120.786 65.8235Z" fill="white"/>
<path d="M154.53 59.1067C152.865 59.1067 151.288 59.9952 151.085 61.9464C150.886 63.8695 149.68 65.9922 148.389 65.9922H148.074C146.927 65.9922 146.438 65.9641 146.438 65.6182C146.438 65.2443 146.924 64.5555 147.757 63.2088C149.68 60.0514 152.145 56.925 154.068 53.7677C155.733 51.4735 158.573 49.2917 158.573 47.7707C158.573 46.5955 156.964 45.8195 152.03 45.648C150.712 45.5917 149.477 45.5917 148.327 45.5917C136.39 45.5917 134.497 48.1755 133.176 53.2813C133.12 53.5399 133.089 53.7677 133.089 53.9701C133.089 55.8651 135.183 56.925 137.222 56.925C139.086 56.925 140.953 56.0366 141.152 54.1135C141.355 52.2185 142.156 50.0677 143.447 50.0677C144.88 50.0677 145.569 50.1239 145.569 50.7565C145.569 52.3338 140.807 58.3027 138.366 62.3203L138.453 62.1769C136.876 64.4149 134.236 66.4533 134.236 67.8871C134.236 69.1214 136.187 69.8665 142.356 69.8665H144.02C153.689 69.8665 158.654 69.695 158.654 62.8067C158.654 60.3972 156.531 59.1039 154.521 59.1039L154.53 59.1067Z" fill="white"/>
<path d="M-0.00011816 30.9043C-0.00011816 32.625 1.72054 33.4291 3.444 33.4291C5.16747 33.4291 6.91624 32.5969 6.91624 30.9915C6.91624 30.7609 6.88812 30.5023 6.80097 30.2464C6.54231 29.358 5.71009 28.2952 5.3952 25.6833L5.53859 11.3361C9.35383 18.5083 10.962 25.7986 12.2244 25.7986C12.3116 25.7986 12.3959 25.7705 12.4831 25.7114C13.0566 25.2813 15.095 19.5148 20.5184 11.1055V25.6833C20.1164 28.8688 18.9693 29.9287 18.9693 30.9043C18.9693 32.5969 21.8398 33.4572 24.6795 33.4572C27.5191 33.4572 30.4459 32.5969 30.4459 30.8734C30.4459 30.6738 30.4178 30.4713 30.3306 30.2408C29.2988 27.4011 28.5791 20.8868 28.5791 14.7183C28.5791 9.49734 29.0964 4.53218 30.3306 2.38136C30.4459 2.20986 30.474 2.00743 30.474 1.83593C30.474 0.832212 28.8658 0 26.8865 0C25.0225 0 22.8407 0.716939 21.2635 2.72718C18.9974 5.62587 16.6441 9.35676 14.4905 12.4551C10.6753 5.45155 10.56 1.7797 7.80468 0.573552C6.88531 0.171503 5.96875 0 5.0775 0C2.35313 0 0.0561124 1.49292 0.0561124 2.26609L0.0842277 2.38136C0.888324 4.56311 1.20322 9.44111 1.20322 14.6059C1.20322 20.7744 0.744937 27.373 0.0842277 30.2436C0.0279971 30.4741 -0.00292969 30.7019 -0.00292969 30.9043H-0.00011816Z" fill="white"/>
<path d="M34.4331 20.7463C34.4331 24.5053 33.629 28.8097 32.8559 30.6738C32.7687 30.8734 32.7125 31.0758 32.7125 31.2473C32.7125 32.7403 35.4678 33.4572 38.2793 33.4572C41.0908 33.4572 44.1329 32.6812 44.1329 31.1911C44.1329 31.0196 44.1048 30.8453 44.0457 30.6738C43.0983 28.3205 42.64 26.8276 42.64 24.4181H42.6681L42.64 13.6584C42.64 11.9378 43.1573 11.7635 43.3007 10.099C43.3007 9.60983 43.2726 9.15155 42.4404 9.15155C40.059 9.15155 32.6562 11.7916 32.6562 14.0014C32.6562 14.2601 32.7715 14.5188 33.0302 14.7774C34.062 15.8402 34.4359 18.1625 34.4359 20.7463H34.4331Z" fill="white"/>
<path d="M56.4411 33.4572C61.4344 33.4572 64.5046 29.4986 65.4212 25.509C65.4774 25.2222 65.5083 24.9636 65.5083 24.733C65.5083 22.8099 63.7286 21.8062 61.8365 21.8062C59.9443 21.8062 57.8778 22.8971 57.6473 25.1351C57.4477 27.2297 57.7626 29.5548 56.4411 29.5548C54.4618 29.5548 53.4862 25.1632 53.4581 21.5785C53.4581 17.6199 54.3465 13.0849 56.4411 13.0849C57.7597 13.0849 57.4449 15.3229 57.6473 17.4174C57.8778 19.6835 59.9134 20.7463 61.8646 20.7463C63.8158 20.7463 65.5083 19.7426 65.5083 17.8476C65.5083 17.5889 65.4802 17.3303 65.4212 17.0435C64.5018 13.0849 61.232 9.15155 56.4411 9.15155C48.4929 9.29494 45.1922 15.5787 45.0488 21.0021C45.0488 26.7967 49.6963 33.3391 56.4411 33.4544V33.4572Z" fill="white"/>
<path d="M78.737 18.5927C74.2329 21.1764 67.46 20.3442 67.46 26.7123C67.46 27.3421 67.5162 28.031 67.6596 28.8069C68.2612 32.0767 71.8488 33.4544 74.545 33.4544L75.0033 33.4263C79.021 33.1957 79.3358 30.5557 80.3986 30.0412C80.3986 32.5097 82.8362 33.4572 85.2766 33.4572C87.717 33.4572 90.298 32.4816 90.298 31.1321C90.298 30.2436 89.2071 29.4958 88.8051 26.3693V20.0575C88.6336 15.3228 86.539 9.26963 79.0491 9.15436C71.905 9.15436 68.8067 12.2527 67.9154 15.7249C67.8592 15.9554 67.8283 16.1832 67.8283 16.4137C67.8283 18.1934 69.7514 19.4839 71.7588 19.4839C73.5947 19.4558 76.4934 18.5364 76.4934 16.3266C76.4934 15.6968 75.9761 15.1795 75.9761 14.6059C75.9761 13.9171 77.2385 12.8262 78.6161 12.8262C79.7913 12.8262 80.5954 14.2882 80.5954 15.7249C80.5954 16.7286 80.1371 17.7914 78.7314 18.5955L78.737 18.5927ZM80.3986 22.4669V24.9355C80.3986 25.6243 80.1118 26.2569 79.08 27.0019C78.304 27.5474 77.1007 27.9494 76.1532 27.9494C75.2057 27.9494 74.545 27.5755 74.545 26.6589C74.6603 24.3338 76.5834 23.9036 79.4511 22.0396C79.7098 21.8681 79.8813 21.7809 80.0247 21.7809C80.3115 21.7809 80.3986 22.1239 80.3986 22.4698V22.4669Z" fill="white"/>
<path d="M102.466 33.4571C107.432 33.4571 110.53 31.191 111.446 27.2015C111.503 26.8866 111.562 26.5998 111.562 26.3412C111.562 24.4771 109.954 23.5015 108.292 23.5015C106.54 23.5015 104.676 24.5643 104.446 26.8304C104.246 28.925 103.785 30.0158 102.466 30.0158C100.715 30.0158 99.8545 25.2812 99.5678 23.8192C99.8264 23.8755 100.113 23.8754 100.428 23.8754C101.288 23.8754 102.323 23.7321 103.47 23.4172C107.401 22.3544 111.362 20.8924 111.362 16.245C111.334 12.1992 105.823 9.21615 102.525 9.1571C95.8397 9.1571 91.0488 15.6995 91.0488 21.2945L91.0769 21.5531C91.2203 26.9766 95.9831 33.3475 102.469 33.4599L102.466 33.4571ZM101.519 13.0567C102.953 13.0567 104.502 14.6058 104.904 15.6967C105.047 16.0707 105.104 16.4418 105.104 16.7595C105.104 18.5673 103.324 19.7144 101.719 19.7144C100.226 19.7144 99.1938 18.8822 99.1657 16.8747C99.1657 14.3781 100.313 13.0595 101.519 13.0595V13.0567Z" fill="white"/>
<path d="M114.489 16.0117C114.489 21.5785 113.772 27.9494 112.824 30.3308C112.709 30.5894 112.681 30.8172 112.681 31.0477C112.681 32.7122 115.262 33.4572 117.961 33.4572C120.975 33.4572 124.129 32.5378 124.129 30.8453C124.129 29.8978 123.039 29.0937 122.608 25.6243V25.3375C122.608 21.7219 122.322 16.5852 122.322 11.8815C122.322 8.26592 122.493 4.90895 123.098 2.67098C123.213 2.26893 123.269 1.83877 123.269 1.49576C123.269 1.12183 123.213 0.83505 123.039 0.607316C122.951 0.492044 122.752 0.463928 122.437 0.463928C120.171 0.463928 112.594 3.21923 112.594 5.71586C112.594 6.00264 112.709 6.31753 112.968 6.6043C114.059 7.83856 114.489 11.6819 114.489 16.0145V16.0117Z" fill="white"/>
<path d="M136.727 18.5927C132.223 21.1764 125.45 20.3442 125.45 26.7123C125.45 27.3421 125.506 28.031 125.65 28.8069C126.251 32.0767 129.839 33.4544 132.535 33.4544L132.994 33.4263C137.011 33.1957 137.326 30.5557 138.389 30.0412C138.389 32.5097 140.826 33.4572 143.267 33.4572C145.707 33.4572 148.288 32.4816 148.288 31.1321C148.288 30.2436 147.197 29.4958 146.795 26.3693V20.0575C146.624 15.3228 144.529 9.26963 137.039 9.15436C129.895 9.15436 126.797 12.2527 125.906 15.7249C125.849 15.9554 125.819 16.1832 125.819 16.4137C125.819 18.1934 127.742 19.4839 129.749 19.4839C131.585 19.4558 134.484 18.5364 134.484 16.3266C134.484 15.6968 133.966 15.1795 133.966 14.6059C133.966 13.9171 135.229 12.8262 136.606 12.8262C137.782 12.8262 138.586 14.2882 138.586 15.7249C138.586 16.7286 138.127 17.7914 136.722 18.5955L136.727 18.5927ZM138.392 22.4669V24.9355C138.392 25.6243 138.105 26.2569 137.073 27.0019C136.297 27.5474 135.094 27.9494 134.146 27.9494C133.199 27.9494 132.538 27.5755 132.538 26.6589C132.653 24.3338 134.576 23.9036 137.444 22.0396C137.703 21.8681 137.874 21.7809 138.018 21.7809C138.304 21.7809 138.392 22.1239 138.392 22.4698V22.4669Z" fill="white"/>
</g>
<defs>
<clipPath id="clip0_380_227">
<rect width="200" height="100" fill="white"/>
</clipPath>
</defs>
</svg>
