<svg width="159" height="70" viewBox="0 0 159 70" fill="none" xmlns="http://www.w3.org/2000/svg">
<path d="M57.1478 38.248C57.1478 37.2443 55.5396 36.4121 53.5603 36.4121C51.6963 36.4121 49.5145 37.1291 47.9373 39.1393C45.6712 42.038 43.3179 45.7689 41.1643 48.8672C37.349 41.8665 37.2338 38.1946 34.4785 36.9885C33.5591 36.5864 32.6426 36.4149 31.7513 36.4149C29.0241 36.4149 26.7299 37.9078 26.7299 38.681L26.758 38.7963C27.5621 40.978 27.877 45.856 27.877 51.0208C27.877 57.1893 27.4187 63.788 26.758 66.6585C26.7018 66.8891 26.6709 67.1168 26.6709 67.3192C26.6709 69.0399 28.3915 69.844 30.115 69.844C31.8385 69.844 33.5872 69.0118 33.5872 67.4064C33.5872 67.1758 33.5591 66.9172 33.472 66.6613C33.2133 65.7729 32.3811 64.7101 32.0662 62.0982L32.2096 47.751C36.0248 54.9232 37.633 62.2135 38.8954 62.2135C38.9825 62.2135 39.0669 62.1854 39.154 62.1263C39.7276 61.6962 41.766 55.9297 47.1894 47.5205V62.0982C46.7873 65.2837 45.6402 66.3436 45.6402 67.3192C45.6402 69.0118 48.5108 69.8721 51.3505 69.8721C54.1901 69.8721 57.1169 69.0118 57.1169 67.2911C57.1169 67.0915 57.0888 66.8891 57.0016 66.6585C55.9698 63.8189 55.25 57.3046 55.25 51.1361C55.25 45.9151 55.7674 40.9499 57.0016 38.7991C57.1169 38.6276 57.145 38.4252 57.145 38.2537L57.1478 38.248Z" fill="white"/>
<path d="M79.9881 58.1621C79.9881 55.5811 80.5617 53.0254 81.5654 49.6403C81.6525 49.3536 81.7088 49.0668 81.7088 48.78C81.7088 46.6292 78.9535 45.5383 76.1701 45.5383C73.3866 45.5383 70.5161 46.6573 70.5161 48.8081C70.5161 49.8119 71.3202 50.7593 71.7222 53.9448V53.6861C71.8094 55.0638 71.8094 55.8679 71.8094 56.6411C71.8094 57.5885 71.7813 58.4489 71.7222 60.2567C71.666 62.4384 71.3483 64.0157 70.1449 64.0157C68.0785 64.0157 67.0748 60.1695 67.0748 56.3262V53.9448C67.3897 51.4763 67.5612 50.4444 67.8198 49.6403C67.9351 49.3255 67.9913 49.0078 67.9913 48.721C67.9913 46.6264 65.4947 45.6227 62.9418 45.6227C60.3889 45.6227 57.6055 46.7135 57.6055 48.8363C57.6055 49.0668 57.6337 49.3536 57.7208 49.6403C57.9514 50.4444 58.8117 51.4763 59.1266 53.9448L59.1547 57.9344C59.1547 64.19 62.3683 69.8721 66.6446 69.8721C68.2219 69.8721 69.9734 69.068 71.7222 67.2602C71.7222 68.7812 74.7643 69.8721 77.4887 69.8721C79.7266 69.8721 81.765 69.127 81.765 67.2911C81.765 66.9762 81.7088 66.6304 81.5654 66.2593C80.4745 63.0457 79.9881 60.6081 79.9881 58.1677V58.1621Z" fill="white"/>
<path d="M95.5981 67.3445C95.5981 66.4251 94.4228 65.3371 94.0489 62.4384V51.1332C94.4228 49.6994 95.4547 49.3845 96.6018 49.3845C98.6092 49.3845 98.7245 51.3638 98.7835 54.8641V62.4384C98.4096 65.4214 97.2063 66.4842 97.2063 67.4317C97.2063 69.068 99.8463 69.8692 102.514 69.8692C105.183 69.8692 108.081 69.0089 108.081 67.3726C108.081 66.4251 106.934 65.3652 106.56 62.4384V56.0984C106.389 50.8465 103.088 45.6817 96.6046 45.5692C95.9439 45.5692 95.3141 45.5973 94.7096 45.6564C94.6534 44.737 93.8212 44.3378 92.6431 44.3378C89.5448 44.3378 84.0342 47.034 84.0342 49.3873C84.0342 49.7303 84.1495 50.0761 84.4082 50.391C85.2685 51.4537 85.5553 53.8351 85.5553 56.5032C85.5553 60.549 84.8665 65.1965 84.2367 66.7456C84.1495 66.9762 84.1214 67.1758 84.1214 67.3782C84.1214 69.0427 86.9329 69.8468 89.8035 69.8468C92.6741 69.8468 95.6009 69.0145 95.6009 67.3501L95.5981 67.3445Z" fill="white"/>
<path d="M93.7304 43.0108H93.8738C98.7799 42.8393 97.7762 38.4758 99.4406 37.6464C99.6711 37.846 99.7555 38.3352 99.7836 38.9369C99.8989 41.6922 99.8989 42.8112 101.161 42.8674C102.022 42.8674 102.77 41.4335 102.882 39.0212C102.882 37.1853 101.963 35.3775 100.011 34.8039C99.494 34.6605 99.0076 34.6043 98.5465 34.6043C96.0218 34.6043 94.7313 36.4684 93.5532 38.4786C93.497 38.5348 93.4099 38.6782 93.2946 38.7654C93.1793 38.6782 93.064 38.4786 93.0359 38.3914L92.8644 37.8741C92.2318 35.4646 91.7735 34.6043 91.2 34.5172C90.4549 34.5172 89.2488 36.1535 89.2207 38.4477C89.2207 40.7419 90.9132 43.0108 93.7247 43.0108H93.7304Z" fill="white"/>
<path d="M120.789 45.5636C112.869 45.5636 108.91 51.6168 108.91 57.701C108.91 63.7851 112.9 69.8664 120.789 69.8664H121.019C127.992 69.8664 131.492 63.8976 131.492 57.8725C131.492 51.8474 127.933 45.707 120.789 45.5636ZM120.789 65.8235C118.953 65.8235 118.034 61.7214 118.034 57.6166C118.034 53.5118 118.953 49.4379 120.789 49.4379C122.366 49.4379 123.17 53.5118 123.17 57.6166C123.17 61.7214 122.366 65.8235 120.789 65.8235Z" fill="white"/>
<path d="M154.533 59.1067C152.868 59.1067 151.291 59.9952 151.088 61.9464C150.889 63.8695 149.683 65.9922 148.392 65.9922H148.077C146.93 65.9922 146.441 65.9641 146.441 65.6182C146.441 65.2443 146.927 64.5555 147.76 63.2088C149.683 60.0514 152.148 56.925 154.071 53.7677C155.736 51.4735 158.576 49.2917 158.576 47.7707C158.576 46.5955 156.967 45.8195 152.033 45.648C150.715 45.5917 149.48 45.5917 148.33 45.5917C136.393 45.5917 134.5 48.1755 133.179 53.2813C133.123 53.5399 133.092 53.7677 133.092 53.9701C133.092 55.8651 135.186 56.925 137.225 56.925C139.089 56.925 140.956 56.0366 141.155 54.1135C141.358 52.2185 142.159 50.0677 143.45 50.0677C144.883 50.0677 145.572 50.1239 145.572 50.7565C145.572 52.3338 140.81 58.3027 138.369 62.3203L138.456 62.1769C136.879 64.4149 134.239 66.4533 134.239 67.8871C134.239 69.1214 136.19 69.8665 142.359 69.8665H144.023C153.692 69.8665 158.657 69.695 158.657 62.8067C158.657 60.3972 156.534 59.1039 154.524 59.1039L154.533 59.1067Z" fill="white"/>
<path d="M0.00281153 30.9043C0.00281153 32.625 1.72347 33.4291 3.44693 33.4291C5.1704 33.4291 6.91917 32.5969 6.91917 30.9915C6.91917 30.7609 6.89105 30.5023 6.8039 30.2464C6.54524 29.358 5.71302 28.2952 5.39813 25.6833L5.54152 11.3361C9.35676 18.5083 10.9649 25.7986 12.2273 25.7986C12.3145 25.7986 12.3988 25.7705 12.486 25.7114C13.0595 25.2813 15.0979 19.5148 20.5213 11.1055V25.6833C20.1193 28.8688 18.9722 29.9287 18.9722 30.9043C18.9722 32.5969 21.8427 33.4572 24.6824 33.4572C27.522 33.4572 30.4488 32.5969 30.4488 30.8734C30.4488 30.6738 30.4207 30.4713 30.3335 30.2408C29.3017 27.4011 28.582 20.8868 28.582 14.7183C28.582 9.49734 29.0993 4.53218 30.3335 2.38136C30.4488 2.20986 30.4769 2.00743 30.4769 1.83593C30.4769 0.832212 28.8687 0 26.8894 0C25.0254 0 22.8436 0.716939 21.2664 2.72718C19.0003 5.62587 16.647 9.35676 14.4934 12.4551C10.6782 5.45155 10.5629 1.7797 7.80761 0.573552C6.88824 0.171503 5.97168 0 5.08043 0C2.35606 0 0.0590421 1.49292 0.0590421 2.26609L0.0871574 2.38136C0.891254 4.56311 1.20615 9.44111 1.20615 14.6059C1.20615 20.7744 0.747867 27.373 0.0871574 30.2436C0.0309268 30.4741 0 30.7019 0 30.9043H0.00281153Z" fill="white"/>
<path d="M34.4361 20.7464C34.4361 24.5054 33.632 28.8098 32.8589 30.6739C32.7717 30.8735 32.7155 31.0759 32.7155 31.2474C32.7155 32.7404 35.4708 33.4573 38.2823 33.4573C41.0938 33.4573 44.1359 32.6813 44.1359 31.1912C44.1359 31.0197 44.1078 30.8454 44.0487 30.6739C43.1013 28.3206 42.643 26.8277 42.643 24.4182H42.6711L42.643 13.6585C42.643 11.9379 43.1603 11.7636 43.3037 10.0991C43.3037 9.60989 43.2756 9.15161 42.4434 9.15161C40.062 9.15161 32.6592 11.7917 32.6592 14.0015C32.6592 14.2602 32.7745 14.5189 33.0332 14.7775C34.065 15.8403 34.4389 18.1626 34.4389 20.7464H34.4361Z" fill="white"/>
<path d="M56.4441 33.4573C61.4374 33.4573 64.5076 29.4987 65.4242 25.5091C65.4804 25.2223 65.5113 24.9637 65.5113 24.7331C65.5113 22.81 63.7316 21.8063 61.8395 21.8063C59.9473 21.8063 57.8808 22.8972 57.6503 25.1352C57.4507 27.2298 57.7656 29.5549 56.4441 29.5549C54.4648 29.5549 53.4892 25.1633 53.4611 21.5786C53.4611 17.62 54.3495 13.085 56.4441 13.085C57.7627 13.085 57.4479 15.323 57.6503 17.4175C57.8808 19.6836 59.9164 20.7464 61.8676 20.7464C63.8188 20.7464 65.5113 19.7427 65.5113 17.8477C65.5113 17.589 65.4832 17.3304 65.4242 17.0436C64.5048 13.085 61.235 9.15161 56.4441 9.15161C48.4959 9.295 45.1952 15.5788 45.0518 21.0022C45.0518 26.7968 49.6993 33.3392 56.4441 33.4545V33.4573Z" fill="white"/>
<path d="M78.7399 18.5928C74.2358 21.1765 67.4629 20.3443 67.4629 26.7124C67.4629 27.3422 67.5191 28.0311 67.6625 28.807C68.2641 32.0768 71.8517 33.4545 74.5479 33.4545L75.0062 33.4264C79.0239 33.1958 79.3387 30.5558 80.4015 30.0413C80.4015 32.5098 82.8391 33.4573 85.2795 33.4573C87.7199 33.4573 90.3009 32.4817 90.3009 31.1322C90.3009 30.2437 89.21 29.4959 88.808 26.3694V20.0576C88.6365 15.3229 86.5419 9.26969 79.052 9.15442C71.9079 9.15442 68.8096 12.2528 67.9183 15.725C67.8621 15.9555 67.8312 16.1833 67.8312 16.4138C67.8312 18.1935 69.7543 19.484 71.7617 19.484C73.5976 19.4559 76.4963 18.5365 76.4963 16.3267C76.4963 15.6969 75.979 15.1796 75.979 14.606C75.979 13.9172 77.2414 12.8263 78.619 12.8263C79.7942 12.8263 80.5983 14.2883 80.5983 15.725C80.5983 16.7287 80.14 17.7915 78.7343 18.5956L78.7399 18.5928ZM80.4015 22.467V24.9356C80.4015 25.6244 80.1147 26.257 79.0829 27.002C78.3069 27.5475 77.1036 27.9495 76.1561 27.9495C75.2086 27.9495 74.5479 27.5756 74.5479 26.659C74.6632 24.3339 76.5863 23.9037 79.454 22.0397C79.7127 21.8682 79.8842 21.781 80.0276 21.781C80.3144 21.781 80.4015 22.124 80.4015 22.4699V22.467Z" fill="white"/>
<path d="M102.469 33.4571C107.435 33.4571 110.533 31.191 111.449 27.2015C111.506 26.8866 111.565 26.5998 111.565 26.3412C111.565 24.4771 109.957 23.5015 108.295 23.5015C106.543 23.5015 104.679 24.5643 104.449 26.8304C104.249 28.925 103.788 30.0158 102.469 30.0158C100.718 30.0158 99.8575 25.2812 99.5708 23.8192C99.8294 23.8755 100.116 23.8754 100.431 23.8754C101.291 23.8754 102.326 23.7321 103.473 23.4172C107.404 22.3544 111.365 20.8924 111.365 16.245C111.337 12.1992 105.826 9.21615 102.528 9.1571C95.8427 9.1571 91.0518 15.6995 91.0518 21.2945L91.0799 21.5531C91.2233 26.9766 95.9861 33.3475 102.472 33.4599L102.469 33.4571ZM101.522 13.0567C102.956 13.0567 104.505 14.6058 104.907 15.6967C105.05 16.0707 105.107 16.4418 105.107 16.7595C105.107 18.5673 103.327 19.7144 101.722 19.7144C100.229 19.7144 99.1968 18.8822 99.1687 16.8747C99.1687 14.3781 100.316 13.0595 101.522 13.0595V13.0567Z" fill="white"/>
<path d="M114.492 16.0116C114.492 21.5784 113.775 27.9493 112.827 30.3307C112.712 30.5893 112.684 30.8171 112.684 31.0476C112.684 32.7121 115.265 33.4571 117.964 33.4571C120.978 33.4571 124.132 32.5377 124.132 30.8452C124.132 29.8977 123.042 29.0936 122.611 25.6242V25.3374C122.611 21.7218 122.325 16.5851 122.325 11.8814C122.325 8.26586 122.496 4.90889 123.101 2.67092C123.216 2.26887 123.272 1.83871 123.272 1.4957C123.272 1.12177 123.216 0.834989 123.042 0.607255C122.954 0.491983 122.755 0.463867 122.44 0.463867C120.174 0.463867 112.597 3.21917 112.597 5.7158C112.597 6.00258 112.712 6.31747 112.971 6.60424C114.062 7.8385 114.492 11.6818 114.492 16.0144V16.0116Z" fill="white"/>
<path d="M136.73 18.5928C132.226 21.1765 125.453 20.3443 125.453 26.7124C125.453 27.3422 125.509 28.0311 125.653 28.807C126.254 32.0768 129.842 33.4545 132.538 33.4545L132.997 33.4264C137.014 33.1958 137.329 30.5558 138.392 30.0413C138.392 32.5098 140.829 33.4573 143.27 33.4573C145.71 33.4573 148.291 32.4817 148.291 31.1322C148.291 30.2437 147.2 29.4959 146.798 26.3694V20.0576C146.627 15.3229 144.532 9.26969 137.042 9.15442C129.898 9.15442 126.8 12.2528 125.909 15.725C125.852 15.9555 125.822 16.1833 125.822 16.4138C125.822 18.1935 127.745 19.484 129.752 19.484C131.588 19.4559 134.487 18.5365 134.487 16.3267C134.487 15.6969 133.969 15.1796 133.969 14.606C133.969 13.9172 135.232 12.8263 136.609 12.8263C137.785 12.8263 138.589 14.2883 138.589 15.725C138.589 16.7287 138.13 17.7915 136.725 18.5956L136.73 18.5928ZM138.395 22.467V24.9356C138.395 25.6244 138.108 26.257 137.076 27.002C136.3 27.5475 135.097 27.9495 134.149 27.9495C133.202 27.9495 132.541 27.5756 132.541 26.659C132.656 24.3339 134.579 23.9037 137.447 22.0397C137.706 21.8682 137.877 21.781 138.021 21.781C138.307 21.781 138.395 22.124 138.395 22.4699V22.467Z" fill="white"/>
</svg>
